<svg width="33" height="38" viewBox="0 0 33 38" fill="none" xmlns="http://www.w3.org/2000/svg">
<path d="M1 32.5625V5.4375C1 4.40979 1.40826 3.42416 2.13496 2.69746C2.86166 1.97076 3.84729 1.5625 4.875 1.5625H30.8375C31.1458 1.5625 31.4415 1.68498 31.6595 1.90299C31.8775 2.121 32 2.41669 32 2.725V28.1334" stroke="white" stroke-width="2" stroke-linecap="round"/>
<path d="M24.25 12.7612C24.2498 13.9271 23.7888 15.0455 22.9674 15.8729C21.0764 17.7794 19.2416 19.7672 17.2789 21.604C17.0597 21.8036 16.7723 21.9115 16.476 21.9054C16.1796 21.8992 15.8969 21.7796 15.6862 21.571L10.0326 15.8748C9.21079 15.0469 8.7496 13.9277 8.7496 12.7612C8.7496 11.5947 9.21079 10.4755 10.0326 9.64767C10.4427 9.23456 10.9305 8.90669 11.4678 8.68294C12.0052 8.4592 12.5815 8.34401 13.1636 8.34401C13.7457 8.34401 14.322 8.4592 14.8594 8.68294C15.3968 8.90669 15.8845 9.23456 16.2946 9.64767L16.5 9.85498L16.7054 9.64767C17.3209 9.02547 18.1077 8.60051 18.9655 8.4269C19.8233 8.25328 20.7134 8.33886 21.5225 8.67274C22.3315 9.00662 23.0229 9.5737 23.5086 10.3018C23.9943 11.0299 24.2524 11.886 24.25 12.7612Z" stroke="white" stroke-width="2" stroke-linejoin="round"/>
<path d="M4.875 28.6875H32M4.875 36.4375H32" stroke="white" stroke-width="2" stroke-linecap="round"/>
<path d="M4.875 36.4375C3.84729 36.4375 2.86166 36.0292 2.13496 35.3025C1.40826 34.5758 1 33.5902 1 32.5625C1 31.5348 1.40826 30.5492 2.13496 29.8225C2.86166 29.0958 3.84729 28.6875 4.875 28.6875" stroke="white" stroke-width="2" stroke-linecap="round" stroke-linejoin="round"/>
</svg>
