<svg width="31" height="35" viewBox="0 0 31 35" fill="none" xmlns="http://www.w3.org/2000/svg">
<path d="M11.625 29.1667H13.5625V21.3889C14.3698 21.3889 15.0563 21.105 15.6221 20.5372C16.1878 19.9694 16.47 19.2811 16.4688 18.4722V12.6389H14.5312V18.4722H13.5625V12.6389H11.625V18.4722H10.6562V12.6389H8.71875V18.4722C8.71875 19.2824 9.00162 19.9714 9.56737 20.5392C10.1331 21.1069 10.819 21.3902 11.625 21.3889V29.1667ZM19.375 29.1667H21.3125V12.6389C20.2469 12.6389 19.3343 13.02 18.5748 13.7822C17.8153 14.5444 17.4362 15.4596 17.4375 16.5278V22.3611H19.375V29.1667ZM0 35V11.6667L15.5 0L31 11.6667V35H0ZM3.875 31.1111H27.125V13.6111L15.5 4.86111L3.875 13.6111V31.1111Z" fill="white"/>
</svg>
