<svg width="26" height="34" viewBox="0 0 26 34" fill="none" xmlns="http://www.w3.org/2000/svg">
<path d="M13 25.5C12.0662 25.5002 11.1666 25.1427 10.4804 24.4986C9.79411 23.8545 9.37156 22.9711 9.29686 22.0244C6.81977 21.1327 4.73209 19.3795 3.40233 17.0744C2.07257 14.7692 1.58623 12.0604 2.02916 9.42606C2.4721 6.7917 3.81582 4.4012 5.82315 2.67652C7.83047 0.951844 10.3723 0.00389196 13 1.19178e-07C15.7948 -0.000411876 18.4877 1.06739 20.5448 2.99167C22.6018 4.91595 23.8728 7.5562 24.1057 10.3889C24.1135 10.5118 24.096 10.6349 24.0545 10.7506C24.0129 10.8662 23.9482 10.9718 23.8643 11.0606C23.7805 11.1494 23.6794 11.2195 23.5675 11.2665C23.4556 11.3134 23.3353 11.3362 23.2143 11.3333C22.9657 11.3266 22.7283 11.2263 22.5482 11.0518C22.3681 10.8773 22.258 10.6411 22.2393 10.3889C22.0739 8.7188 21.4739 7.12372 20.501 5.76786C19.5281 4.412 18.2175 3.34435 16.7041 2.67483C15.1908 2.00531 13.5293 1.75811 11.8908 1.95867C10.2523 2.15924 8.69594 2.80032 7.38197 3.81593C6.068 4.83154 5.0439 6.18497 4.41508 7.73689C3.78626 9.28881 3.57546 10.9831 3.80437 12.6455C4.03328 14.3078 4.69364 15.878 5.71745 17.1945C6.74127 18.511 8.09155 19.5262 9.62929 20.1356C9.90909 19.5206 10.3463 18.9936 10.8953 18.6096C11.4442 18.2256 12.0845 17.9988 12.7492 17.9531C13.4138 17.9073 14.0784 18.0442 14.6732 18.3494C15.2679 18.6546 15.7711 19.1169 16.1298 19.6879C16.4886 20.2588 16.6897 20.9174 16.7123 21.5946C16.7348 22.2718 16.5778 22.9427 16.2578 23.537C15.9377 24.1312 15.4665 24.627 14.8933 24.9724C14.3201 25.3178 13.6662 25.5 13 25.5ZM3.731 20.7778H3.9C4.62429 21.4974 5.42843 22.1321 6.29943 22.6667H3.731C2.68914 22.6667 1.85714 23.511 1.85714 24.5556C1.85714 27.0281 3.01229 28.8698 4.96414 30.1334C6.95129 31.4236 9.77786 32.1111 13 32.1111C16.2221 32.1111 19.0487 31.4236 21.0359 30.1334C22.9859 28.8679 24.1429 27.03 24.1429 24.5556C24.1429 24.0546 23.9472 23.5741 23.5989 23.2199C23.2506 22.8657 22.7783 22.6667 22.2857 22.6667H18.4953C18.5986 22.0414 18.5986 21.403 18.4953 20.7778H22.2857C23.2708 20.7778 24.2155 21.1758 24.9121 21.8843C25.6087 22.5927 26 23.5536 26 24.5556C26 27.7497 24.453 30.158 22.035 31.7277C19.6541 33.2709 16.445 34 13 34C9.555 34 6.34586 33.2709 3.965 31.7277C1.547 30.1599 0 27.7478 0 24.5556C0 22.4532 1.677 20.7778 3.731 20.7778ZM20.4286 11.3333C20.4295 12.6115 20.1113 13.869 19.5039 14.988C18.8965 16.107 18.0197 17.0508 16.9557 17.731C16.4597 17.2228 15.8737 16.8145 15.2286 16.5278C16.4017 16.007 17.3627 15.0913 17.9501 13.9346C18.5375 12.778 18.7154 11.4508 18.4539 10.1764C18.1924 8.90204 17.5074 7.75808 16.5142 6.93694C15.5209 6.11579 14.28 5.66752 13 5.66752C11.72 5.66752 10.4791 6.11579 9.48582 6.93694C8.49257 7.75808 7.80761 8.90204 7.54609 10.1764C7.28458 11.4508 7.46247 12.778 8.04986 13.9346C8.63725 15.0913 9.59831 16.007 10.7714 16.5278C10.1214 16.8168 9.53643 17.2267 9.04428 17.731C7.6348 16.8274 6.56376 15.4694 6.00229 13.8739C5.71602 13.0586 5.57026 12.1991 5.57143 11.3333C5.57143 9.32948 6.35408 7.40769 7.74721 5.99075C9.14033 4.57381 11.0298 3.77778 13 3.77778C14.9702 3.77778 16.8597 4.57381 18.2528 5.99075C19.6459 7.40769 20.4286 9.32948 20.4286 11.3333Z" fill="white"/>
</svg>
