<svg width="33" height="38" viewBox="0 0 33 38" fill="none" xmlns="http://www.w3.org/2000/svg">
<path d="M1 32.5625V5.4375C1 4.40979 1.40826 3.42416 2.13496 2.69746C2.86166 1.97076 3.84729 1.5625 4.875 1.5625H30.8375C31.1458 1.5625 31.4415 1.68498 31.6595 1.90299C31.8775 2.121 32 2.41669 32 2.725V28.1334" stroke="white" stroke-width="2" stroke-linecap="round"/>
<path d="M24.25 12.7612C24.2498 13.9271 23.7888 15.0455 22.9674 15.8729C21.0764 17.7794 19.2416 19.7672 17.2789 21.604C17.0598 21.8036 16.7724 21.9115 16.476 21.9054C16.1797 21.8992 15.897 21.7796 15.6863 21.571L10.0326 15.8748C9.21082 15.0469 8.74963 13.9277 8.74963 12.7612C8.74963 11.5947 9.21082 10.4755 10.0326 9.64767C10.4427 9.23456 10.9305 8.90669 11.4679 8.68294C12.0052 8.4592 12.5816 8.34401 13.1636 8.34401C13.7457 8.34401 14.3221 8.4592 14.8594 8.68294C15.3968 8.90669 15.8846 9.23456 16.2946 9.64767L16.5 9.85498L16.7054 9.64767C17.3209 9.02547 18.1077 8.60051 18.9655 8.4269C19.8234 8.25328 20.7135 8.33886 21.5225 8.67274C22.3316 9.00662 23.0229 9.5737 23.5087 10.3018C23.9944 11.0299 24.2524 11.886 24.25 12.7612Z" stroke="white" stroke-width="2" stroke-linejoin="round"/>
<path d="M4.875 28.6875H32M4.875 36.4375H32" stroke="white" stroke-width="2" stroke-linecap="round"/>
<path d="M4.875 36.4375C3.84729 36.4375 2.86166 36.0292 2.13496 35.3025C1.40826 34.5758 1 33.5902 1 32.5625C1 31.5348 1.40826 30.5492 2.13496 29.8225C2.86166 29.0958 3.84729 28.6875 4.875 28.6875" stroke="white" stroke-width="2" stroke-linecap="round" stroke-linejoin="round"/>
<path d="M2 28H31V3.5H2V28Z" stroke="white" stroke-width="2" stroke-linecap="round" stroke-linejoin="round"/>
<path d="M3.55778 5.31669C3.42441 5.48341 3.09903 6.28407 3.37174 6.28407C3.57651 6.28407 3.75344 6.35848 3.96705 6.35848C4.20121 6.35848 4.32406 6.15684 4.49208 6.06083C4.78905 5.89113 5.05546 5.58419 5.34371 5.38697C5.75539 5.10529 6.16084 4.86629 6.64595 4.79166C6.90511 4.75179 7.0969 4.69519 7.31567 4.87021C7.48313 5.00417 7.35288 5.13458 7.35288 5.27948C7.35288 5.49647 7.12964 5.70249 7.12964 5.94921C7.12964 6.14902 7.12964 6.34884 7.12964 6.54865C7.12964 6.9806 7.66318 7.38241 8.05981 7.47056C8.48218 7.56441 9.22019 6.98932 8.87423 6.54452C8.47248 6.02799 7.54203 5.90971 6.95187 5.7301C6.85716 5.70127 6.56315 5.71182 6.65835 5.68462C6.89482 5.61706 7.11302 5.49577 7.35288 5.42831C8.31989 5.15634 9.79923 5.04797 10.7015 5.44898C11.0282 5.59419 11.4044 5.59622 11.6854 5.82105C11.8643 5.96412 12.6238 5.83759 12.8595 5.83759C13.2634 5.83759 13.722 5.89847 14.108 5.77971C14.5523 5.64302 14.9428 5.76317 15.3896 5.76317C16.2909 5.76317 17.1541 5.83759 18.0519 5.83759C19.1603 5.83759 20.3158 5.74582 21.3799 5.98228C22.2967 6.18603 23.1741 6.13524 24.0588 6.13524C24.9949 6.13524 25.2716 3.64635 23.5379 4.53948C23.1276 4.75086 22.6733 4.86701 22.277 5.09345C22.1854 5.14581 23.277 5.47429 23.3353 5.49446C23.6574 5.60596 24.0678 5.61522 24.3523 5.79625C24.4759 5.87488 24.7277 5.98641 24.8773 5.98641C25.4801 5.98641 26.3116 6.26067 26.9237 6.00295C27.2438 5.86818 27.8119 6.12418 28.0978 5.89546C28.3202 5.71755 28.7423 5.79658 28.9908 5.59781C29.3116 5.34114 29.7262 5.44026 29.8093 5.8872C29.9435 6.60868 29.677 7.40994 29.677 8.14441C29.677 8.94286 29.8258 9.71934 29.8258 10.5257C29.8258 11.0652 29.8808 11.5874 29.9003 12.1214C29.9256 12.8192 30.0556 13.4381 29.9912 14.1389C29.9273 14.8337 29.936 15.5209 30.0491 16.2059C30.1479 16.8045 30.292 17.4298 30.2351 18.0332C30.135 19.0945 30.2723 20.1622 30.2723 21.204C30.2723 21.641 30.1878 21.9481 30.2682 22.3905C30.3201 22.6761 30.4082 23.123 30.3095 23.3992C30.0803 24.041 30.1846 24.803 29.9375 25.4456C29.7863 25.8387 29.5577 26.0226 29.305 26.3386C29.1428 26.5413 28.7232 26.6852 28.4781 26.752C27.8791 26.9154 27.303 27.1199 26.6633 27.1199C25.1429 27.1199 23.5879 26.9548 22.0579 27.1902C21.8342 27.2246 21.586 27.1943 21.3592 27.1943C18.9014 27.1943 16.4443 27.0683 13.984 27.0869C11.8169 27.1032 9.64744 27.1943 7.48104 27.1943C7.35992 27.1943 6.91445 27.2602 6.83199 27.1571C6.70906 27.0035 6.31825 26.8223 6.12505 26.8223C5.7046 26.8223 5.00083 26.3771 4.65745 26.1526C4.48527 26.04 4.20924 25.7925 4.00426 25.7805C3.70072 25.7626 3.83392 25.9741 3.85543 25.7805C3.88518 25.5128 4.16798 25.3192 4.15309 25.0363C4.11191 24.2539 4.07974 23.6222 4.28538 22.837C4.4487 22.2134 4.67399 21.5189 4.67399 20.8692C4.67399 20.5922 4.60998 19.9148 4.43421 19.6951C4.1297 19.3145 3.9197 19.572 3.70661 19.9183C3.40224 20.4129 3.85543 20.9768 3.85543 21.4645C3.85543 23.2208 4.00426 17.954 4.00426 16.1976C4.00426 15.7264 4.00426 15.2551 4.00426 14.7838C4.00426 14.6474 3.94508 14.3579 4.04147 14.2422C4.11576 14.1531 4.05883 14.0142 4.11588 13.9115C4.28658 13.6042 4.26947 13.1111 4.30192 12.7705C4.37163 12.0385 4.4184 11.3081 4.55823 10.5835C4.63258 10.1982 4.75817 9.87352 4.56236 9.52107C4.43525 9.29226 4.34674 9.06767 4.23164 8.81827C4.14308 8.62641 3.85987 7.55737 3.81823 7.55737C3.50689 7.55737 3.81716 9.36504 4.0456 9.1366C4.66927 8.51293 5.04604 7.36725 5.34371 6.54865C5.40069 6.39196 5.60048 6.1735 5.74885 6.13111C7.41946 5.65379 5.74695 11.0951 5.6455 11.5178C5.57034 11.831 5.49254 11.9821 5.49254 12.3199C5.49254 13.1923 5.48476 14.1795 5.60829 15.0442C5.69914 15.6802 6.01343 16.4044 6.01343 17.041C6.01343 17.5647 5.93902 18.0944 5.93902 18.6244C5.93902 19.2965 5.90686 20.0619 6.10438 20.7038C6.20311 21.0247 6.25924 21.342 6.36897 21.6712C6.46277 21.9526 6.25115 22.1713 6.23667 22.4319C6.22149 22.7051 6.15447 22.883 6.25321 23.1595C6.42538 23.6415 6.89891 24.0201 7.2454 24.3666C7.80932 24.9306 8.09329 25.1752 8.94864 25.1852C9.51402 25.1917 10.1402 25.1618 10.685 25.3175C12.5489 25.85 14.564 25.6361 16.4727 25.8714C17.6875 26.0212 18.9424 25.7701 20.1521 25.6317C21.251 25.5059 22.3618 25.4488 23.4676 25.4994C23.885 25.5184 24.4186 25.6547 24.8319 25.5242C25.5099 25.31 26.2864 25.1583 26.808 24.6643C27.5147 23.9947 28.2721 23.307 28.7096 22.4319" stroke="white" stroke-width="3" stroke-linecap="round"/>
<path d="M21.7891 21.0924C20.8693 21.3881 19.8271 21.5643 18.9614 21.9854C18.3506 22.2825 17.7135 22.5178 17.0597 22.6717C15.9941 22.9224 14.4977 22.9462 13.4961 22.4732C13.0785 22.276 12.6401 22.1593 12.1898 22.1342C11.8499 22.1154 11.4561 21.8317 11.119 21.7291C10.9113 21.6659 10.6184 21.7614 10.4948 21.5389C10.2902 21.1706 9.94296 20.9099 9.77544 20.5219C9.51529 19.9195 9.02278 19.2911 8.84527 18.6699C8.74329 18.3129 8.47538 17.9936 8.24583 17.7066C8.0318 17.4391 7.65052 17.5551 7.65052 17.9299C7.65052 18.4587 7.57805 18.9872 7.64638 19.5339C7.6875 19.8628 7.83188 20.2011 7.94817 20.5137C8.06875 20.8377 8.05865 21.2319 8.18795 21.5389C8.53767 22.3695 9.05031 23.1526 10.0152 23.3414C10.6465 23.4649 11.3872 23.6854 12.0409 23.5316C12.4839 23.4273 12.9657 23.4737 13.4217 23.4737C13.8308 23.4737 14.4675 23.3831 14.8314 23.5853C14.9488 23.6505 15.2556 23.6969 15.3896 23.6969C15.648 23.6969 15.8516 23.8458 16.1006 23.8458C16.6192 23.8458 17.091 23.9946 17.5848 23.9946C18.5582 23.9946 19.541 24.0284 20.5076 23.9036C20.9915 23.8412 21.5226 23.7845 21.938 23.5646C22.324 23.3603 22.5936 22.4851 22.6077 22.1177C22.6418 21.2317 22.9798 20.3286 22.9798 19.4553C22.9798 18.7844 23.7366 18.4987 24.282 18.2978C25.0605 18.011 24.9099 18.8 24.7657 19.3768C24.585 20.0996 23.9549 20.9222 24.1001 21.7208C24.1859 22.1928 24.0639 23.2134 24.621 23.3249C25.2151 23.4437 25.7742 23.3476 26.3284 23.0851C27.6005 22.4825 28.051 20.8628 28.5773 19.6786C28.7582 19.2716 28.7695 18.7448 28.5773 18.3391C28.2799 17.7112 28.1021 16.9982 27.8952 16.3382C27.8507 16.1961 27.4177 14.4035 27.2544 14.4035C27.061 14.4035 26.9159 14.8482 26.8782 14.9781C26.7342 15.4741 26.7004 15.9135 26.7004 16.4209C26.7004 16.8274 26.8493 17.2183 26.8493 17.6281C26.8493 18.0511 26.8493 18.4742 26.8493 18.8972C26.8493 19.4727 26.8895 20.27 26.5103 20.7576C26.0449 21.356 25.6293 20.4425 25.5098 20.0755C25.1647 19.0153 25.339 18.0015 25.6587 16.9625C25.8229 16.4288 26.0172 15.8766 26.2126 15.346C26.6576 14.1384 27.0919 12.994 27.2792 11.7246C27.3938 10.948 27.5517 10.2839 27.8332 9.54177C28.0552 8.95649 28.5476 8.00101 28.1722 7.40031C27.8935 6.95443 26.9717 7.91949 26.8493 8.1031C26.729 8.28356 26.5681 8.42517 26.4441 8.60746C26.3578 8.73439 26.2514 9.02454 26.1423 9.11182C26.0196 9.21005 26.0383 9.39665 25.8075 9.40948C25.6435 9.41859 25.3956 9.35969 25.2866 9.22344C25.122 9.01774 24.8497 8.67302 24.6541 8.51651C24.4879 8.38354 25.1091 7.70044 25.2866 7.60701C25.8175 7.32758 26.4702 7.34681 27.056 7.32589C27.4352 7.31235 27.8292 7.19821 28.1887 7.17706C29.0651 7.12551 27.3388 5.41503 26.9609 5.2051C26.4502 4.9214 25.9033 4.83713 25.3527 4.6842C24.9943 4.58463 24.5664 4.6378 24.1952 4.58912C23.6243 4.51424 23.0406 4.48002 22.4671 4.42789C21.4234 4.333 20.3405 4.42375 19.2921 4.42375C18.4926 4.42375 17.6494 4.33468 16.8572 4.42789C16.3769 4.48439 15.5097 4.54755 15.0009 4.40722C14.343 4.22571 13.4971 4.34934 12.8181 4.34934C12.3789 4.34934 11.9001 4.41597 11.4704 4.50644C10.814 4.64463 10.1467 4.99629 9.5274 5.24231C8.97046 5.46355 8.25095 5.91973 7.65052 5.98644C7.16243 6.04067 6.57542 6.45485 6.17051 6.70578C5.42686 7.16663 4.42899 7.80291 3.93396 8.54545C3.86639 8.6468 3.66936 8.73981 3.6363 8.85551C3.56922 9.09031 3.39141 9.37451 3.27664 9.59965C3.15745 9.83343 3.11803 10.1266 2.99965 10.3397C2.61065 11.0398 3.17717 11.9446 3.32625 12.6341C3.58953 13.8517 3.72338 15.0703 3.96703 16.2886C4.05853 16.7461 3.94864 17.2155 4.06212 17.6694C4.15265 18.0316 4.30189 18.4122 4.30189 18.7856" stroke="white" stroke-width="3" stroke-linecap="round"/>
<path d="M5.12048 21.9854C5.23204 22.1249 5.25929 22.5491 5.26931 22.7296C5.28442 23.0015 5.43661 23.315 5.49669 23.5853C5.59883 24.045 5.88916 24.4881 5.93904 24.962C5.99396 25.4838 6.13369 25.9648 6.6501 26.1526C7.06071 26.3019 7.55323 26.227 7.98541 26.227C8.20264 26.227 8.38986 26.0782 8.61793 26.0782" stroke="white" stroke-width="3" stroke-linecap="round"/>
</svg>
