<svg width="36" height="36" viewBox="0 0 36 36" fill="none" xmlns="http://www.w3.org/2000/svg">
<path d="M4.77778 18H1L18 1L35 18H31.2222M4.77778 18V31.2222C4.77778 32.2241 5.17579 33.185 5.88426 33.8935C6.59273 34.602 7.55363 35 8.55556 35H27.4444C28.4464 35 29.4073 34.602 30.1157 33.8935C30.8242 33.185 31.2222 32.2241 31.2222 31.2222V18" fill="white"/>
<path d="M4.77778 18H1L18 1L35 18H31.2222V31.2222C31.2222 32.2242 30.8242 33.185 30.1157 33.8935C29.4073 34.602 28.4464 35 27.4444 35H8.55556C7.55363 35 6.59273 34.602 5.88426 33.8935C5.17579 33.185 4.77778 32.2242 4.77778 31.2222V18Z" stroke="white" stroke-width="2" stroke-linecap="round" stroke-linejoin="round"/>
<path d="M12.3334 35V23.6667C12.3334 22.6648 12.7314 21.7039 13.4399 20.9954C14.1483 20.2869 15.1092 19.8889 16.1112 19.8889H19.8889C20.8909 19.8889 21.8518 20.2869 22.5602 20.9954C23.2687 21.7039 23.6667 22.6648 23.6667 23.6667V35" fill="white"/>
<path d="M12.3334 35V23.6667C12.3334 22.6648 12.7314 21.7039 13.4399 20.9954C14.1483 20.2869 15.1092 19.8889 16.1112 19.8889H19.8889C20.8909 19.8889 21.8518 20.2869 22.5602 20.9954C23.2687 21.7039 23.6667 22.6648 23.6667 23.6667V35" stroke="white" stroke-width="2" stroke-linecap="round" stroke-linejoin="round"/>
</svg>
