<svg width="34" height="34" viewBox="0 0 34 34" fill="none" xmlns="http://www.w3.org/2000/svg">
<path d="M0 34V3.4C0 2.465 0.3332 1.6643 0.9996 0.997903C1.666 0.331503 2.46613 -0.00113045 3.4 2.88625e-06H30.6C31.535 2.88625e-06 32.3357 0.333203 33.0021 0.999603C33.6685 1.666 34.0011 2.46614 34 3.4V23.8C34 24.735 33.6668 25.5357 33.0004 26.2021C32.334 26.8685 31.5339 27.2011 30.6 27.2H6.8L0 34ZM12.0275 20.825L17 17.8075L21.9725 20.825L20.655 15.1725L25.075 11.3475L19.2525 10.88L17 5.525L14.7475 10.88L8.925 11.3475L13.345 15.1725L12.0275 20.825Z" fill="white"/>
</svg>
