<svg width="34" height="42" viewBox="0 0 34 42" fill="none" xmlns="http://www.w3.org/2000/svg">
<path d="M17 2L17.6182 2.01465C20.701 2.1614 23.6383 3.40509 25.9111 5.53125C28.3344 7.79817 29.8253 10.902 30.0986 14.2246L30.1006 14.2441L30.1016 14.2627C30.1265 14.6574 30.0705 15.0537 29.9365 15.4268C29.8024 15.7999 29.5924 16.1433 29.3184 16.4336C29.0443 16.7238 28.7116 16.9548 28.3408 17.1104C27.9699 17.2659 27.5702 17.3426 27.167 17.333H27.1602C26.8477 17.3245 26.5428 17.2643 26.2539 17.1631C26.0679 18.1319 25.7352 19.0702 25.2617 19.9424C24.6685 21.0352 23.87 21.9975 22.9141 22.7773H26.2861C27.8125 22.7775 29.2691 23.3953 30.3379 24.4824C31.4057 25.5685 32 27.0341 32 28.5557C32 32.5 30.0462 35.5083 27.124 37.4053L27.123 37.4062C24.317 39.2251 20.6895 40 17 40C13.4257 40 9.90995 39.2723 7.14258 37.5732L6.87695 37.4062C3.95312 35.5105 2.00004 32.4972 2 28.5557C2 25.8833 3.79309 23.635 6.24023 22.9746C6.03935 22.6829 5.84816 22.3832 5.66992 22.0742C4.10714 19.3652 3.5371 16.1851 4.05664 13.0947C4.57632 10.0039 6.15387 7.19173 8.51953 5.15918C10.886 3.12598 13.8885 2.0046 16.9971 2H17ZM7.86035 28.667C7.89216 30.334 8.63917 31.5401 10.0508 32.4541L10.0527 32.4561C11.6142 33.4698 14.0224 34.1113 17 34.1113C19.9776 34.1113 22.3858 33.4698 23.9473 32.4561L24.21 32.2764C25.4535 31.3826 26.1099 30.2275 26.1396 28.667H21.9131C21.4286 29.4933 20.7486 30.1897 19.9258 30.6855C19.1529 31.1512 18.2824 31.426 17.3857 31.4873L17 31.5C15.5533 31.5002 14.1651 30.946 13.1113 29.957C12.7051 29.5758 12.3612 29.14 12.084 28.667H7.86035ZM17 11.668C16.1887 11.668 15.3972 11.9516 14.7598 12.4785C14.1219 13.006 13.6757 13.7461 13.5049 14.5781C13.334 15.4107 13.4511 16.2773 13.833 17.0293C14.2146 17.7807 14.8352 18.3682 15.583 18.7002L16.999 19.3281L18.417 18.7002C19.1648 18.3682 19.7854 17.7807 20.167 17.0293C20.5489 16.2773 20.666 15.4107 20.4951 14.5781C20.3243 13.7461 19.8781 13.006 19.2402 12.4785C18.6028 11.9516 17.8113 11.668 17 11.668Z" fill="#3E0000" stroke="white" stroke-width="4"/>
</svg>
