<svg width="90" height="95" viewBox="0 0 90 95" fill="none" xmlns="http://www.w3.org/2000/svg">
<path d="M34.764 83.9657H72.4862" stroke="#3E0000" stroke-width="2" stroke-linecap="round" stroke-linejoin="round"/>
<path d="M74.5819 16.6973V15.5668L75.1058 13.3056L76.6776 11.0445L77.7254 9.34866" stroke="#3E0000" stroke-width="3" stroke-linecap="round" stroke-linejoin="round"/>
<path d="M71.4384 11.6098L70.3906 9.91393L69.3428 7.08753L70.3906 3.69584L73.5341 2H76.1537H79.8212L81.9168 2.56528L84.0125 3.69584L85.0603 5.39169" stroke="#3E0000" stroke-width="3" stroke-linecap="round" stroke-linejoin="round"/>
<path d="M31.6205 78.3129H75.6297" stroke="#3E0000" stroke-width="2" stroke-linecap="round" stroke-linejoin="round"/>
<path d="M63.0557 30.8294L64.6274 29.1335L66.1992 26.8724L66.7231 25.1765L65.6753 22.9154L63.5796 21.2196" stroke="#3E0000" stroke-width="3" stroke-linecap="round" stroke-linejoin="round"/>
<path d="M57.8165 25.7418L56.7687 23.4807L55.7208 22.3501L55.1969 20.6543V16.6973L57.8165 14.4362L59.9122 13.3056H61.4839H65.1514" stroke="#3E0000" stroke-width="3" stroke-linecap="round" stroke-linejoin="round"/>
<path d="M64.1035 39.8738L64.6274 38.178L66.1992 36.4821L67.247 35.9168L69.8666 34.7863H71.9623L74.5819 34.221L77.2015 33.6557L79.8211 31.9599L81.9168 29.1335V26.3071V24.6112M81.9168 24.6112H79.8211L77.2015 25.7418L76.6776 26.3071M81.9168 24.6112L83.4885 23.4807L85.5842 22.3501L86.632 20.6543L87.6799 18.9584V17.2626L86.632 14.4362L85.5842 13.8709L84.5364 13.3056" stroke="#3E0000" stroke-width="3" stroke-linecap="round" stroke-linejoin="round"/>
<path d="M82.0116 59.1796L81.0542 60.232L77.266 60.8835L73.8053 61.5657L73.3033 62.5882L73.5225 63.6937L73.9514 64.3902L74.6317 64.8717L77.7752 64.7062L81.6458 64.1309L82.9377 64.4107L84.5468 64.7127L85.7407 66.076L86.4415 66.4923L88.806 65.9465L89.178 64.7045L89.5499 63.4625L89.2211 61.8042L89.0018 60.6986L88.1915 59.7295L88.5634 58.4875L88.3442 57.382L88.2346 56.8292L87.3146 55.3074L86.6138 54.891L85.4316 55.164L84.2493 55.4369L83.7677 56.1261L82.953 57.9514L82.0116 59.1796Z" fill="#3E0000" stroke="#3E0000" stroke-width="0.5" stroke-linecap="round" stroke-linejoin="round"/>
<path d="M56.0131 70.7384C56.0131 70.6995 56.0041 70.6609 55.9867 70.6261L55.5306 69.7209L55.4838 69.6564L55.0287 69.2043L54.1166 68.3L53.6615 67.8478L53.5961 67.8009L52.6849 67.3488C52.6677 67.3403 52.6498 67.3336 52.6312 67.3293L52.5746 67.3224H50.8549L50.5463 67.0158V65.8371L50.7972 65.4503L50.7982 65.4513L51.6947 64.1144L53.0345 62.7853L54.5092 61.4757L57.1537 61.0392H58.9232L60.7142 61.4845L62.5365 61.9367L62.5482 61.9386L64.8148 62.3878V62.3888L66.6371 62.841L66.6488 62.8429L68.8763 63.2853L70.1615 64.1359L71.0033 65.3878V66.1554L70.5824 66.9914L69.7074 68.2951L68.3812 69.173L68.3705 69.1808L66.5482 70.5373L66.5209 70.5607L64.2709 72.7931L63.4125 73.2189L62.0658 73.6642L60.2904 74.1056H57.1449L55.9125 73.9523L55.558 73.38V72.7492L55.9926 71.7414C56.006 71.7102 56.013 71.6767 56.0131 71.6427V70.7384Z" fill="#3E0000" stroke="#3E0000" stroke-width="0.5" stroke-linecap="round" stroke-linejoin="round"/>
<path d="M43.4525 72.0296L43.8275 72.4348L44.0365 72.6604L43.8275 72.886C43.7421 72.9784 43.6947 73.1 43.6947 73.2259V74.0569L43.0199 74.4212H42.8412L42.599 74.1585V72.2913L42.8412 72.0296H43.4525Z" fill="#3E0000" stroke="#3E0000" stroke-linecap="round" stroke-linejoin="round"/>
<path d="M46.7781 74.2486L46.7439 74.1461L46.2664 73.1138V71.6675L46.5066 71.2652L46.8474 70.899H48.0925L49.1335 71.3765L49.5906 71.8697L49.9812 72.2906V74.2466L49.5359 75.2047L49.2156 75.5513H48.9744L47.0828 75.0406L46.7898 74.7242V74.356C46.7898 74.3198 46.7858 74.2838 46.7781 74.2486Z" fill="#3E0000" stroke="#3E0000" stroke-linecap="round" stroke-linejoin="round"/>
<path d="M73.0367 46.3419L70.4869 57.8976L70.3629 58.2784H69.1901L66.944 57.7218L65.3893 57.1622H65.3873L63.4772 56.4874H63.4762L62.2477 56.0323L61.3883 55.7013L61.3766 55.6974L60.6774 55.4669L59.2975 54.9054L59.2633 54.8937L56.9821 54.3282L56.9215 54.3214H53.778L53.7135 54.3302L51.6178 54.8947C51.5952 54.9007 51.5732 54.91 51.5533 54.922L51.4996 54.9669L51.0094 55.4933L50.5328 55.7062L50.4723 55.7443L49.4244 56.6427L49.4039 56.6622L48.8795 57.2277L48.3561 57.7931L47.3082 58.923L46.7838 59.4884L46.2604 60.0538L46.2164 60.1193L45.693 61.2491L45.1686 62.38C45.1533 62.4129 45.1451 62.4492 45.1451 62.4855V64.1124L44.1862 65.7501L44.1588 65.8204L43.7799 67.4513L42.819 68.4884L41.3053 69.0333L41.2711 69.048L40.2233 69.6134L40.1588 69.6642L39.111 70.7941L39.0817 70.8331L38.0338 72.5284C38.0094 72.5679 37.9957 72.6139 37.9957 72.6603V73.5411H36.7955L30.7164 65.8888L32.1422 64.3507L32.1451 64.3478L48.3121 46.3419H73.0367Z" fill="#3E0000" stroke="#3E0000" stroke-width="0.5" stroke-linecap="round" stroke-linejoin="round"/>
<path d="M11.7116 37.0474L8.56812 33.6557L17.4747 24.046L20.6183 27.4376" stroke="#3E0000" stroke-width="3" stroke-linecap="round" stroke-linejoin="round"/>
<path d="M54.4108 35.1366C51.9108 32.4681 48.9778 30.3245 45.7792 28.8284C42.5807 27.3323 39.1792 26.5129 35.7691 26.4171C32.359 26.3212 29.0069 26.9508 25.9044 28.2698C22.8018 29.5888 20.0095 31.5714 17.6868 34.1045C15.3641 36.6375 13.5566 39.6714 12.3675 43.0329C11.1783 46.3943 10.6308 50.0176 10.7562 53.6957C10.8816 57.3738 11.6775 61.0348 13.0983 64.4696C14.5192 67.9044 16.5372 71.0458 19.0372 73.7144L36.724 54.4255L54.4108 35.1366Z" fill="#3E0000"/>
<path d="M69.1574 64.0367C68.9501 63.8356 68.8055 63.8783 68.5585 63.8783C68.4086 63.8783 67.986 63.9141 67.8871 63.7793C67.8106 63.675 67.5701 63.403 67.4515 63.403C67.2231 63.403 66.9957 63.2984 66.762 63.2842C66.551 63.2714 66.3235 63.2239 66.1288 63.1632C65.9347 63.1027 65.7563 62.9765 65.5461 62.9256C65.3135 62.8692 65.1556 62.7694 64.9029 62.7694C64.6619 62.7694 64.2583 62.667 64.0681 62.501C63.9963 62.4383 63.7847 62.4921 63.6951 62.4921C63.5757 62.4921 63.459 62.4003 63.3342 62.3755C63.1281 62.3347 62.9075 62.1533 62.7152 62.0367C62.5076 61.9109 62.1605 61.7793 61.9348 61.7793C61.5401 61.7793 61.1312 61.5788 60.7654 61.4141C60.197 61.1581 59.6054 60.7892 58.9769 60.7892C58.6209 60.7892 58.239 60.8288 57.8719 60.8288C57.4593 60.8288 57.0481 60.8684 56.6359 60.8684C56.4695 60.8684 56.2945 60.8856 56.1359 60.9388C55.8341 61.0401 55.462 61.0088 55.1478 61.0268C55.0014 61.0352 54.7673 61.1452 54.6357 61.2116C53.8814 61.5922 53.4041 62.0352 52.8855 62.7606C52.5922 63.1709 52.4098 63.6183 52.1556 64.0543C51.9816 64.3526 51.7497 64.6223 51.6556 64.9563C51.6204 65.0809 51.5748 65.2249 51.5265 65.3436C51.3361 65.811 51.3756 66.5085 51.3733 67.0113C51.3718 67.317 51.2888 67.7996 51.4096 68.096C51.5014 68.3215 51.6712 68.3896 51.8693 68.481C52.4255 68.7378 53.0473 68.9282 53.5691 69.2445C53.6409 69.288 53.7498 69.3574 53.8251 69.3809C53.9187 69.4101 53.9078 69.7161 53.93 69.8055C54.0539 70.3052 54.2417 70.8056 54.4583 71.2664C54.5073 71.3708 54.6243 71.5496 54.7123 71.6097C54.8476 71.7019 54.9416 71.8754 55.1035 71.9485C55.2346 72.0077 55.5027 72.0968 55.6116 72.2037C55.7685 72.3578 55.9993 72.5865 56.1984 72.668C56.5211 72.8 56.8414 72.9757 57.1783 73.086C57.2825 73.1201 57.3841 73.197 57.4888 73.2224C57.5542 73.2383 57.6429 73.187 57.7005 73.1674C57.9682 73.0765 58.2275 73.0397 58.5071 73.0266C58.9625 73.0052 59.4037 73.0164 59.858 73.0266C60.0169 73.0302 60.1647 73.0856 60.3218 73.0486C61.3021 72.8179 62.3038 72.5117 63.314 72.5117C63.3696 72.5117 63.4865 72.5421 63.5318 72.5161C63.6783 72.432 63.8122 72.2454 63.931 72.1157C64.0659 71.9685 64.2412 71.8741 64.3746 71.7285C64.8631 71.1954 65.4229 70.7254 65.9111 70.1928C66.2036 69.8736 66.4737 69.5538 66.7539 69.2335C66.9285 69.0338 67.2324 68.7919 67.3427 68.5514" stroke="#3E0000" stroke-width="3" stroke-linecap="round"/>
</svg>
