<svg width="22" height="21" viewBox="0 0 22 21" fill="none" xmlns="http://www.w3.org/2000/svg">
<path d="M11 0.5C11.2009 0.5 11.3827 0.620588 11.4609 0.805664L14.1426 7.15234L21.043 7.75195C21.243 7.76932 21.4136 7.90469 21.4756 8.0957C21.5376 8.2867 21.4789 8.49639 21.3271 8.62793L16.1045 13.1553L17.6621 19.8877C17.7072 20.0832 17.631 20.2864 17.4688 20.4043C17.3062 20.5222 17.089 20.5315 16.917 20.4277L11 16.8584L5.08301 20.4277C4.91104 20.5315 4.69381 20.5222 4.53125 20.4043C4.36897 20.2864 4.29283 20.0832 4.33789 19.8877L5.89453 13.1553L0.672852 8.62793C0.521128 8.49639 0.462446 8.2867 0.524414 8.0957C0.586411 7.90469 0.756958 7.76932 0.957031 7.75195L7.85645 7.15234L10.5391 0.805664L10.5732 0.739258C10.6631 0.592126 10.8241 0.5 11 0.5Z" fill="#963D3D" stroke="#963D3D" stroke-linejoin="round"/>
</svg>
